# xmcd
#
# Track frame offsets:
#	150
#	10018
#	19590
#	29666
#	40655
#	49443
#	58177
#	68211
#	80193
#	89136
#	97501
#	105586
#	115466
#	125109
#	137287
#	146312
#	156582
#	170072
#	179470
#	189222
#	198500
#	211252
#	220372
#	228853
#	238151
#	248979
#	257466
#	270696
#	275329
#	283455
#	303777
#	315706
#	322347
#
# Disc length: 4443 seconds
#
# Revision: 5
# Processed by: cddbd v1.5.2PL0 Copyright (c) Steve Scherf et al.
# Submitted via: EasyCDDAExtractor 12.0.1.1
#
DISCID=f2115921
DTITLE=Various Artist - Vol. 1 - Rock'n Roll 1958-1960
DYEAR=2004
DGENRE=Rock and Roll
TTITLE0=Rocke-Pelle and Rockin' Five - Tennessee Toddy
TTITLE1=Rocke-Pelle and Rockin' Five - A teenage love affair
TTITLE2=Rocke-Pelle and Rockin' Five - Gonna shake this shack tonight
TTITLE3=Rocke-Pelle and Rockin' Five - Goodnight my love
TTITLE4=Rocke-Pelle - Good rockin' baby
TTITLE5=Odd Gisløy and Kjell's Rockin' Stars - Dancin' with my rockin' shoes
TTITLE6=Per Elvis Granberg and Rockin' Sinners - 20 flight rock
TTITLE7=Per Elvis Granberg and Rockin' Sinners - A looka
TTITLE8=Pelle Hartvig - A love that's a lie
TTITLE9=Per Elvis Granberg - Ready Teddy
TTITLE10=Per Elvis Granberg and Triple Team - Don't ask me why
TTITLE11=Pelle Hartvig - Splish splash
TTITLE12=Jan Rohde and His Cool Cats  - Lotta lovin'
TTITLE13=Roald Stensby  - King Creole
TTITLE14=Roald Stensby - Rip it up
TTITLE15=Roald Stensby - Too Young
TTITLE16=Roald Stensby - Danny
TTITLE17=Per Elvis Granberg and His Rockers - Tennessee Waltz
TTITLE18=Per Elvis Granberg and His Rockers - Tallahassee Lassie
TTITLE19=Per Elvis Granberg and His Rockers - Hey hey good lookin'
TTITLE20=Per Elvis Granberg and His Rockers - Danny
TTITLE21=Jan Rohde Orchestra - Sho shy
TTITLE22=Jan Rohde - Come rock baby
TTITLE23=Per Elvis Granberg - When will I be loved
TTITLE24=Per Elvis Granberg - Only the lonely
TTITLE25=Per Elvis Granberg - My bonnie
TTITLE26=Per Elvis Granberg - Tell Laura I love her
TTITLE27=Rocke-Pelle - Treat me nice (Bonus)
TTITLE28=Rocke-Pelle - Wanderin' eyes (Bonus)
TTITLE29=Per Elvis Granberg - Bouna sera (Bonus)
TTITLE30=Roald Stensby and Rockin' Jailers - One night with you (Bonus)
TTITLE31=Roald Stensby and Rockin' Jailers - Party (Bonus)
TTITLE32=Roald Stensby and Rockin' Dukes - You'll nver tame me (Bonus)
EXTD=YEAR: 2004
EXTT0=
EXTT1=
EXTT2=
EXTT3=
EXTT4=
EXTT5=
EXTT6=
EXTT7=
EXTT8=
EXTT9=
EXTT10=
EXTT11=
EXTT12=
EXTT13=
EXTT14=
EXTT15=
EXTT16=
EXTT17=
EXTT18=
EXTT19=
EXTT20=
EXTT21=
EXTT22=
EXTT23=
EXTT24=
EXTT25=
EXTT26=
EXTT27=
EXTT28=
EXTT29=
EXTT30=
EXTT31=
EXTT32=
PLAYORDER=
